<svg width="512" height="512" viewBox="0 0 512 512" fill="none" xmlns="http://www.w3.org/2000/svg">
<g clip-path="url(#clip0_104_6)">
<path d="M491.669 366.869L399.552 450.816C356.224 490.283 300.096 512 241.515 512H21.3333C9.536 512 0 502.464 0 490.667C0 478.869 9.536 469.333 21.3333 469.333H241.493C289.429 469.333 335.339 451.563 370.795 419.264L462.187 336.021C469.589 328.597 471.36 315.883 465.515 307.776C461.675 302.464 456.085 299.264 449.728 298.731C443.52 298.325 437.355 300.48 432.917 304.917L342.592 387.819C331.115 398.656 315.669 405.333 298.667 405.333H192C180.203 405.333 170.667 395.797 170.667 384C170.667 372.203 180.203 362.667 192 362.667H298.667C304.043 362.667 320 360.213 320 341.333C320 329.557 310.443 320 298.667 320H193.877C142.613 320 94.3787 339.989 58.112 376.235L36.8213 398.699C32.6187 403.115 26.9867 405.355 21.3333 405.355C16.064 405.355 10.7733 403.413 6.656 399.509C-1.87733 391.381 -2.24 377.877 5.86667 369.344L27.5627 346.496C72.2987 301.781 131.221 277.376 193.899 277.376H298.688C325.056 277.376 347.755 293.419 357.547 316.245L403.435 274.133C416.043 261.483 434.496 254.613 453.163 256.235C471.936 257.728 489.067 267.435 500.16 282.859C518.165 307.904 514.517 344 491.691 366.891L491.669 366.869ZM85.4613 46.1227C84.5653 33.728 89.1307 21.5253 98.0053 12.672C106.859 3.79733 119.061 -0.853339 131.477 0.127995C192.853 4.45866 233.557 25.6213 256 66.5173C278.464 25.6213 319.147 4.45866 380.544 0.127995C393.152 -0.896005 405.163 3.79733 413.995 12.672C422.869 21.5253 427.435 33.728 426.539 46.144C419.904 140.288 373.632 185.771 277.333 191.381V213.312C277.333 225.109 267.797 234.645 256 234.645C244.203 234.645 234.667 225.109 234.667 213.312V191.381C138.368 185.749 92.096 140.288 85.4613 46.1227V46.1227ZM278.016 148.651C349.717 143.872 379.008 113.728 384 43.136C312.981 47.7013 282.795 76.9493 278.016 148.651ZM128.448 42.6667C133.013 113.685 162.261 143.872 233.963 148.651C229.184 76.9493 199.04 47.6587 128.448 42.6667V42.6667Z" fill="#00A9FA"/>
</g>
<defs>
<clipPath id="clip0_104_6">
<rect width="512" height="512" fill="white"/>
</clipPath>
</defs>
</svg>
